<svg width="48" height="48" version="1.1" viewBox="0 0 12.7 12.7" xmlns="http://www.w3.org/2000/svg">
 <g fill="#0070f3" aria-label="a">
  <path d="m4.4168 12.7q-1.5304 0-2.4971-1.2082-0.93975-1.2082-0.93975-3.1683 0-2.148 0.99345-4.0544 0.99345-1.9332 2.6313-3.0878 1.6647-1.1814 3.5174-1.1814 0.5907 0 0.77865 0.24165 0.2148 0.2148 0.34905 0.8055 0.51015-0.1074 1.1277-0.1074 0.6444 0 0.99345 0.3222 0.34905 0.3222 0.34905 0.9129 0 0.61755-0.2685 2.148-0.29535 1.6378-0.45645 3.1414-0.1611 1.4768-0.1611 3.3294 0 1.0203-0.4296 1.4768-0.40275 0.4296-1.3425 0.4296-0.9129 0-1.3694-0.4296-0.4296-0.45645-0.4296-1.4499l0.02685-0.4296q-0.83235 2.3091-2.873 2.3091zm1.0472-2.7119q0.7518 0 1.3694-1.0472t1.1008-3.7322l0.51015-2.7119q-1.1008 0.02685-2.0406 0.8592-0.93975 0.8055-1.5036 2.148t-0.56385 2.8461q0 0.8055 0.29535 1.2351 0.3222 0.40275 0.83235 0.40275z" fill="#0070f3"/>
 </g>
</svg>
