<?xml version="1.0" standalone="no"?>
<!DOCTYPE svg PUBLIC "-//W3C//DTD SVG 20010904//EN"
 "http://www.w3.org/TR/2001/REC-SVG-20010904/DTD/svg10.dtd">
<svg version="1.0" xmlns="http://www.w3.org/2000/svg"
 width="700.000000pt" height="700.000000pt" viewBox="0 0 700.000000 700.000000"
 preserveAspectRatio="xMidYMid meet">
<metadata>
Created by potrace 1.11, written by Peter Selinger 2001-2013
</metadata>
<g transform="translate(0.000000,700.000000) scale(0.100000,-0.100000)"
fill="#000000" stroke="none">
<path d="M4268 6995 c-2 -2 -34 -6 -73 -9 -160 -14 -330 -42 -450 -73 -33 -8
-64 -16 -70 -17 -22 -5 -164 -49 -220 -68 -208 -72 -419 -169 -630 -293 -58
-33 -308 -196 -315 -205 -3 -3 -30 -23 -60 -45 -215 -154 -458 -380 -701 -650
-100 -112 -286 -359 -383 -510 -22 -33 -52 -79 -68 -103 -15 -24 -28 -45 -28
-48 0 -2 -12 -23 -26 -45 -109 -173 -289 -540 -379 -774 -84 -218 -173 -507
-210 -685 -47 -229 -66 -340 -81 -485 -3 -33 -8 -71 -10 -85 -11 -71 -19 -261
-19 -485 0 -251 9 -402 30 -530 2 -16 7 -48 10 -70 9 -62 34 -182 56 -270 156
-622 515 -1113 991 -1358 239 -123 457 -175 758 -182 151 -3 220 1 340 19 188
29 386 107 560 221 260 170 504 484 650 835 17 41 37 89 44 105 35 83 35 83
29 15 -12 -133 -5 -443 11 -469 2 -3 7 -24 10 -46 26 -165 108 -346 198 -438
96 -98 229 -167 394 -205 139 -32 148 -33 339 -37 268 -5 413 21 585 103 79
37 108 58 170 121 95 97 169 231 195 355 3 10 9 33 14 50 15 48 28 140 36 256
2 41 7 248 10 460 6 385 8 461 20 685 4 66 8 149 10 185 3 63 11 175 20 290 3
30 7 84 10 120 3 36 7 81 10 100 2 19 7 64 10 100 3 36 8 81 10 100 3 19 7 58
10 85 5 46 8 71 20 175 9 71 56 436 61 465 2 17 6 41 9 55 2 14 7 45 10 70 3
25 7 56 9 70 5 25 11 65 22 138 3 20 9 62 14 92 5 30 12 70 15 88 10 62 14 88
35 212 11 69 23 136 26 150 2 14 7 40 10 59 3 18 8 43 10 55 9 44 33 193 39
236 3 25 8 52 10 60 5 17 10 51 21 125 3 28 8 58 10 69 2 10 6 44 9 75 4 31 8
63 10 71 2 8 7 47 11 85 3 39 8 79 10 90 24 127 25 465 1 555 -66 251 -266
423 -532 456 -27 4 -53 8 -57 11 -9 5 -271 4 -353 -2 -118 -8 -295 -30 -358
-44 -27 -7 -39 -6 -42 2 -1 7 -12 48 -24 92 -45 166 -99 273 -176 350 -94 95
-176 117 -437 120 -103 2 -188 1 -190 0z m382 -1385 c0 -10 -9 -64 -20 -121
-11 -57 -25 -126 -30 -154 -5 -27 -12 -61 -14 -75 -3 -14 -9 -50 -15 -80 -6
-30 -12 -66 -15 -80 -2 -14 -12 -63 -21 -110 -9 -47 -18 -96 -21 -110 -2 -14
-9 -47 -14 -75 -5 -27 -12 -63 -15 -80 -2 -16 -7 -41 -10 -55 -2 -14 -7 -36
-9 -50 -4 -22 -17 -86 -31 -160 -3 -14 -10 -52 -16 -85 -6 -33 -16 -91 -24
-130 -7 -38 -20 -108 -29 -155 -9 -47 -29 -155 -46 -240 -17 -85 -33 -167 -35
-182 -3 -14 -14 -66 -26 -115 -12 -48 -23 -99 -26 -113 -24 -135 -146 -580
-212 -779 -171 -508 -385 -856 -638 -1037 -263 -189 -589 -167 -796 55 -77 82
-158 278 -173 416 -3 27 -9 68 -14 90 -8 37 -5 489 4 565 2 19 7 64 10 100 3
36 8 74 10 85 2 11 7 43 10 70 13 92 37 215 70 365 35 154 143 476 207 618 16
34 29 65 29 68 0 9 150 308 163 324 7 8 21 31 31 50 58 107 207 316 310 435
393 453 843 713 1301 752 39 3 71 7 73 8 10 8 32 -2 32 -15z"/>
</g>
</svg>
