<?xml version="1.0" standalone="no"?>
<!DOCTYPE svg PUBLIC "-//W3C//DTD SVG 20010904//EN"
 "http://www.w3.org/TR/2001/REC-SVG-20010904/DTD/svg10.dtd">
<svg version="1.0" xmlns="http://www.w3.org/2000/svg"
 width="473.000000pt" height="473.000000pt" viewBox="0 0 473.000000 473.000000"
 preserveAspectRatio="xMidYMid meet">
<metadata>
Created by potrace 1.11, written by Peter Selinger 2001-2013
</metadata>
<g transform="translate(0.000000,473.000000) scale(0.100000,-0.100000)"
fill="#000000" stroke="none">
<path d="M2965 4723 c-311 -11 -611 -86 -884 -222 -135 -67 -175 -91 -311
-182 -443 -299 -816 -733 -1059 -1234 -168 -345 -264 -663 -317 -1050 -26
-186 -26 -605 -1 -765 57 -364 179 -645 378 -870 228 -260 520 -390 869 -391
303 0 528 89 726 285 129 129 208 249 293 445 27 62 51 114 53 116 2 2 3 -69
3 -158 0 -188 17 -280 72 -395 41 -87 84 -137 160 -188 108 -72 249 -105 443
-105 281 1 471 93 558 271 65 133 73 187 82 585 22 873 62 1266 229 2255 114
670 125 867 57 1016 -48 104 -170 196 -296 223 -76 17 -334 14 -454 -4 -55 -8
-105 -15 -112 -15 -7 0 -24 37 -39 88 -48 156 -96 227 -175 261 -54 23 -171
38 -275 34z m182 -945 c-3 -13 -47 -241 -97 -508 -50 -267 -111 -586 -136
-710 -185 -915 -388 -1350 -708 -1518 -47 -25 -61 -27 -171 -27 -113 0 -123 2
-174 28 -160 85 -238 252 -249 535 -12 317 52 692 174 1019 228 614 674 1078
1131 1177 94 21 110 23 177 25 56 1 58 0 53 -21z"/>
</g>
</svg>
